<svg width="70" height="70" viewBox="0 0 70 70" fill="none" xmlns="http://www.w3.org/2000/svg">
<rect x="1.5" y="1.5" width="67" height="67" rx="33.5" fill="black"/>
<rect x="1.5" y="1.5" width="67" height="67" rx="33.5" stroke="#D1AC66" stroke-width="3"/>
<path d="M52.6882 17.2155C52.5636 17.1099 52.412 17.0398 52.2497 17.0126C52.0874 16.9855 51.9206 17.0023 51.7674 17.0615L15.1775 31.104C14.8045 31.2459 14.4887 31.503 14.2776 31.8363C14.0665 32.1697 13.9717 32.5613 14.0073 32.9521C14.043 33.3429 14.2072 33.7118 14.4753 34.0031C14.7433 34.2944 15.1007 34.4924 15.4935 34.5672L25.5572 36.5042V47.4535C25.5571 47.8771 25.6862 48.2911 25.9278 48.6422C26.1694 48.9934 26.5125 49.2657 26.9131 49.4242C27.1709 49.5256 27.446 49.5779 27.7238 49.5782C28.0145 49.5776 28.3021 49.5195 28.5695 49.4076C28.8369 49.2957 29.0785 49.1321 29.2801 48.9266L34.3355 43.792L42.099 50.4688C42.4926 50.8092 42.9988 50.998 43.5236 51C43.7527 50.999 43.9804 50.9638 44.1988 50.8955C44.5562 50.7846 44.8777 50.5836 45.1312 50.3127C45.3846 50.0417 45.5612 49.7104 45.6432 49.3516L52.9771 18.0831C53.0138 17.9264 53.0063 17.7628 52.9554 17.61C52.9045 17.4571 52.8121 17.3208 52.6882 17.2155ZM15.4465 32.825C15.4359 32.7393 15.4556 32.6527 15.5023 32.5796C15.5489 32.5064 15.6197 32.4512 15.7029 32.423L47.2356 20.3211L26.1115 35.1674L15.7733 33.1773C15.6857 33.1647 15.6052 33.1227 15.5456 33.0585C15.486 32.9942 15.451 32.9117 15.4465 32.825ZM28.242 47.9422C28.1421 48.0431 28.0139 48.1125 27.8737 48.1417C27.7335 48.1709 27.5876 48.1585 27.4545 48.1061C27.3215 48.0537 27.2074 47.9636 27.1268 47.8474C27.0461 47.7312 27.0025 47.5941 27.0016 47.4535V37.4851L33.2449 42.85L28.242 47.9422ZM44.2349 49.0293C44.207 49.1496 44.1475 49.2606 44.0624 49.3514C43.9773 49.4421 43.8695 49.5095 43.7497 49.5469C43.6299 49.5843 43.5022 49.5904 43.3792 49.5645C43.2563 49.5386 43.1423 49.4817 43.0487 49.3994L27.4403 35.9766L51.2185 19.2658L44.2349 49.0293Z" fill="#D1AC66"/>
</svg>
